<mxfile host="app.diagrams.net" agent="Mozilla/5.0 (Windows NT 10.0; Win64; x64) AppleWebKit/537.36 (KHTML, like Gecko) Chrome/131.0.0.0 Safari/537.36" version="25.0.3">
  <diagram name="Page-1" id="DOSBF38sDXuN_YtfLslx">
    <mxGraphModel dx="2670" dy="753" grid="1" gridSize="10" guides="1" tooltips="1" connect="1" arrows="1" fold="1" page="1" pageScale="1" pageWidth="827" pageHeight="1169" math="0" shadow="0">
      <root>
        <mxCell id="0" />
        <mxCell id="1" parent="0" />
        <mxCell id="u-Aj2_A5IeIaLN87Bf7G-1" value="Пользователь" style="shape=umlActor;verticalLabelPosition=bottom;verticalAlign=top;html=1;" vertex="1" parent="1">
          <mxGeometry x="-160" y="1241" width="30" height="60" as="geometry" />
        </mxCell>
        <mxCell id="u-Aj2_A5IeIaLN87Bf7G-2" value="Ввод правильного логина и пароля" style="rounded=1;whiteSpace=wrap;html=1;shadow=0;comic=0;labelBackgroundColor=none;strokeWidth=1;fontFamily=Verdana;fontSize=12;align=center;arcSize=50;" vertex="1" parent="1">
          <mxGeometry x="-95.5" y="1120" width="180" height="70" as="geometry" />
        </mxCell>
        <mxCell id="u-Aj2_A5IeIaLN87Bf7G-3" value="&amp;lt;&amp;lt;Include&amp;gt;&amp;gt;" style="endArrow=open;endSize=12;dashed=1;html=1;rounded=0;exitX=1;exitY=0.5;exitDx=0;exitDy=0;entryX=0;entryY=0.5;entryDx=0;entryDy=0;" edge="1" parent="1" source="u-Aj2_A5IeIaLN87Bf7G-2" target="u-Aj2_A5IeIaLN87Bf7G-4">
          <mxGeometry width="160" relative="1" as="geometry">
            <mxPoint x="345" y="1220" as="sourcePoint" />
            <mxPoint x="490" y="1240" as="targetPoint" />
          </mxGeometry>
        </mxCell>
        <mxCell id="u-Aj2_A5IeIaLN87Bf7G-4" value="Вход в учетную запись" style="rounded=1;whiteSpace=wrap;html=1;shadow=0;comic=0;labelBackgroundColor=none;strokeWidth=1;fontFamily=Verdana;fontSize=12;align=center;arcSize=50;" vertex="1" parent="1">
          <mxGeometry x="215" y="1089" width="170" height="80" as="geometry" />
        </mxCell>
        <mxCell id="u-Aj2_A5IeIaLN87Bf7G-5" value="&lt;font style=&quot;vertical-align: inherit;&quot;&gt;&lt;font style=&quot;vertical-align: inherit;&quot;&gt;Войти в конференцию&lt;/font&gt;&lt;/font&gt;" style="rounded=1;whiteSpace=wrap;html=1;shadow=0;comic=0;labelBackgroundColor=none;strokeWidth=1;fontFamily=Verdana;fontSize=12;align=center;arcSize=50;" vertex="1" parent="1">
          <mxGeometry x="10" y="1280" width="180" height="70" as="geometry" />
        </mxCell>
        <mxCell id="u-Aj2_A5IeIaLN87Bf7G-6" value="&lt;font style=&quot;vertical-align: inherit;&quot;&gt;&lt;font style=&quot;vertical-align: inherit;&quot;&gt;Ввести идентификатор&lt;/font&gt;&lt;/font&gt;" style="rounded=1;whiteSpace=wrap;html=1;shadow=0;comic=0;labelBackgroundColor=none;strokeWidth=1;fontFamily=Verdana;fontSize=12;align=center;arcSize=50;" vertex="1" parent="1">
          <mxGeometry x="309" y="1299" width="90" height="40" as="geometry" />
        </mxCell>
        <mxCell id="u-Aj2_A5IeIaLN87Bf7G-8" value="" style="endArrow=none;html=1;rounded=0;entryX=0;entryY=0.25;entryDx=0;entryDy=0;" edge="1" parent="1" target="u-Aj2_A5IeIaLN87Bf7G-5">
          <mxGeometry width="50" height="50" relative="1" as="geometry">
            <mxPoint x="-145" y="1271" as="sourcePoint" />
            <mxPoint x="470" y="1440" as="targetPoint" />
          </mxGeometry>
        </mxCell>
        <mxCell id="u-Aj2_A5IeIaLN87Bf7G-9" value="" style="endArrow=none;html=1;rounded=0;entryX=0;entryY=0.75;entryDx=0;entryDy=0;exitX=0.5;exitY=0.5;exitDx=0;exitDy=0;exitPerimeter=0;" edge="1" parent="1" target="u-Aj2_A5IeIaLN87Bf7G-2" source="u-Aj2_A5IeIaLN87Bf7G-1">
          <mxGeometry width="50" height="50" relative="1" as="geometry">
            <mxPoint x="-130" y="1270" as="sourcePoint" />
            <mxPoint x="10" y="1458" as="targetPoint" />
          </mxGeometry>
        </mxCell>
        <mxCell id="u-Aj2_A5IeIaLN87Bf7G-10" value="&lt;font style=&quot;vertical-align: inherit;&quot;&gt;&lt;font style=&quot;vertical-align: inherit;&quot;&gt;&lt;font style=&quot;vertical-align: inherit;&quot;&gt;&lt;font style=&quot;vertical-align: inherit;&quot;&gt;Запланировать встречу&lt;/font&gt;&lt;/font&gt;&lt;/font&gt;&lt;/font&gt;" style="rounded=1;whiteSpace=wrap;html=1;shadow=0;comic=0;labelBackgroundColor=none;strokeWidth=1;fontFamily=Verdana;fontSize=12;align=center;arcSize=50;" vertex="1" parent="1">
          <mxGeometry x="-21" y="1480" width="180" height="70" as="geometry" />
        </mxCell>
        <mxCell id="u-Aj2_A5IeIaLN87Bf7G-11" value="&lt;font style=&quot;vertical-align: inherit;&quot;&gt;&lt;font style=&quot;vertical-align: inherit;&quot;&gt;Выбрать метод создания идентификатора&lt;/font&gt;&lt;/font&gt;" style="rounded=1;whiteSpace=wrap;html=1;shadow=0;comic=0;labelBackgroundColor=none;strokeWidth=1;fontFamily=Verdana;fontSize=12;align=center;arcSize=50;" vertex="1" parent="1">
          <mxGeometry x="180" y="1550" width="120" height="50" as="geometry" />
        </mxCell>
        <mxCell id="u-Aj2_A5IeIaLN87Bf7G-12" value="&lt;font style=&quot;vertical-align: inherit;&quot;&gt;&lt;font style=&quot;vertical-align: inherit;&quot;&gt;Указать участников&lt;/font&gt;&lt;/font&gt;" style="rounded=1;whiteSpace=wrap;html=1;shadow=0;comic=0;labelBackgroundColor=none;strokeWidth=1;fontFamily=Verdana;fontSize=12;align=center;arcSize=50;" vertex="1" parent="1">
          <mxGeometry x="120" y="1650" width="110" height="60" as="geometry" />
        </mxCell>
        <mxCell id="u-Aj2_A5IeIaLN87Bf7G-13" value="&amp;lt;&amp;lt;Include&amp;gt;&amp;gt;" style="endArrow=open;endSize=12;dashed=1;html=1;rounded=0;exitX=1;exitY=0.5;exitDx=0;exitDy=0;entryX=0;entryY=0.5;entryDx=0;entryDy=0;" edge="1" parent="1" source="u-Aj2_A5IeIaLN87Bf7G-10" target="u-Aj2_A5IeIaLN87Bf7G-11">
          <mxGeometry width="160" relative="1" as="geometry">
            <mxPoint x="150" y="1245" as="sourcePoint" />
            <mxPoint x="320" y="1250" as="targetPoint" />
          </mxGeometry>
        </mxCell>
        <mxCell id="u-Aj2_A5IeIaLN87Bf7G-14" value="&amp;lt;&amp;lt;Include&amp;gt;&amp;gt;" style="endArrow=open;endSize=12;dashed=1;html=1;rounded=0;entryX=0.25;entryY=0;entryDx=0;entryDy=0;exitX=0.75;exitY=1;exitDx=0;exitDy=0;" edge="1" parent="1" source="u-Aj2_A5IeIaLN87Bf7G-10" target="u-Aj2_A5IeIaLN87Bf7G-12">
          <mxGeometry width="160" relative="1" as="geometry">
            <mxPoint x="130" y="1548" as="sourcePoint" />
            <mxPoint x="170" y="1559" as="targetPoint" />
            <Array as="points" />
          </mxGeometry>
        </mxCell>
        <mxCell id="u-Aj2_A5IeIaLN87Bf7G-15" value="&lt;font style=&quot;vertical-align: inherit;&quot;&gt;&lt;font style=&quot;vertical-align: inherit;&quot;&gt;Указать дату и время&lt;/font&gt;&lt;/font&gt;" style="rounded=1;whiteSpace=wrap;html=1;shadow=0;comic=0;labelBackgroundColor=none;strokeWidth=1;fontFamily=Verdana;fontSize=12;align=center;arcSize=50;" vertex="1" parent="1">
          <mxGeometry x="-50" y="1660" width="120" height="60" as="geometry" />
        </mxCell>
        <mxCell id="u-Aj2_A5IeIaLN87Bf7G-16" value="&amp;lt;&amp;lt;Include&amp;gt;&amp;gt;" style="endArrow=open;endSize=12;dashed=1;html=1;rounded=0;exitX=0.5;exitY=1;exitDx=0;exitDy=0;entryX=0.5;entryY=0;entryDx=0;entryDy=0;" edge="1" parent="1" source="u-Aj2_A5IeIaLN87Bf7G-10" target="u-Aj2_A5IeIaLN87Bf7G-15">
          <mxGeometry width="160" relative="1" as="geometry">
            <mxPoint x="84" y="1600" as="sourcePoint" />
            <mxPoint x="178" y="1675" as="targetPoint" />
            <Array as="points" />
          </mxGeometry>
        </mxCell>
        <mxCell id="u-Aj2_A5IeIaLN87Bf7G-17" value="" style="endArrow=none;html=1;rounded=0;entryX=0.25;entryY=0;entryDx=0;entryDy=0;exitX=0.5;exitY=0.5;exitDx=0;exitDy=0;exitPerimeter=0;" edge="1" parent="1" source="u-Aj2_A5IeIaLN87Bf7G-1" target="u-Aj2_A5IeIaLN87Bf7G-10">
          <mxGeometry width="50" height="50" relative="1" as="geometry">
            <mxPoint x="-120" y="1292" as="sourcePoint" />
            <mxPoint x="10" y="1388" as="targetPoint" />
          </mxGeometry>
        </mxCell>
        <mxCell id="u-Aj2_A5IeIaLN87Bf7G-18" value="&lt;font style=&quot;vertical-align: inherit;&quot;&gt;&lt;font style=&quot;vertical-align: inherit;&quot;&gt;Создать конференцию&lt;/font&gt;&lt;/font&gt;" style="rounded=1;whiteSpace=wrap;html=1;shadow=0;comic=0;labelBackgroundColor=none;strokeWidth=1;fontFamily=Verdana;fontSize=12;align=center;arcSize=50;" vertex="1" parent="1">
          <mxGeometry x="-460" y="1480" width="180" height="70" as="geometry" />
        </mxCell>
        <mxCell id="u-Aj2_A5IeIaLN87Bf7G-21" value="" style="endArrow=none;html=1;rounded=0;exitX=0.5;exitY=0.5;exitDx=0;exitDy=0;exitPerimeter=0;" edge="1" parent="1" source="u-Aj2_A5IeIaLN87Bf7G-1" target="u-Aj2_A5IeIaLN87Bf7G-18">
          <mxGeometry width="50" height="50" relative="1" as="geometry">
            <mxPoint x="-110" y="1320" as="sourcePoint" />
            <mxPoint x="5" y="1540" as="targetPoint" />
          </mxGeometry>
        </mxCell>
        <mxCell id="u-Aj2_A5IeIaLN87Bf7G-36" value="&lt;font style=&quot;vertical-align: inherit;&quot;&gt;&lt;font style=&quot;vertical-align: inherit;&quot;&gt;Зарегистрироваться&lt;/font&gt;&lt;/font&gt;" style="rounded=1;whiteSpace=wrap;html=1;shadow=0;comic=0;labelBackgroundColor=none;strokeWidth=1;fontFamily=Verdana;fontSize=12;align=center;arcSize=50;" vertex="1" parent="1">
          <mxGeometry x="-250" y="1445" width="180" height="70" as="geometry" />
        </mxCell>
        <mxCell id="u-Aj2_A5IeIaLN87Bf7G-37" value="" style="endArrow=none;html=1;rounded=0;exitX=0.5;exitY=0.5;exitDx=0;exitDy=0;exitPerimeter=0;" edge="1" parent="1" target="u-Aj2_A5IeIaLN87Bf7G-36" source="u-Aj2_A5IeIaLN87Bf7G-1">
          <mxGeometry width="50" height="50" relative="1" as="geometry">
            <mxPoint x="-132" y="1311" as="sourcePoint" />
            <mxPoint x="-95" y="1652" as="targetPoint" />
            <Array as="points" />
          </mxGeometry>
        </mxCell>
        <mxCell id="u-Aj2_A5IeIaLN87Bf7G-40" value="Редактировать свой профиль" style="rounded=1;whiteSpace=wrap;html=1;shadow=0;comic=0;labelBackgroundColor=none;strokeWidth=1;fontFamily=Verdana;fontSize=12;align=center;arcSize=50;" vertex="1" parent="1">
          <mxGeometry x="-404.5" y="1180" width="180" height="70" as="geometry" />
        </mxCell>
        <mxCell id="u-Aj2_A5IeIaLN87Bf7G-41" value="" style="endArrow=none;html=1;rounded=0;exitX=1;exitY=0.5;exitDx=0;exitDy=0;entryX=0.5;entryY=0.5;entryDx=0;entryDy=0;entryPerimeter=0;" edge="1" parent="1" source="u-Aj2_A5IeIaLN87Bf7G-40" target="u-Aj2_A5IeIaLN87Bf7G-1">
          <mxGeometry width="50" height="50" relative="1" as="geometry">
            <mxPoint x="170" y="1490" as="sourcePoint" />
            <mxPoint x="220" y="1440" as="targetPoint" />
          </mxGeometry>
        </mxCell>
        <mxCell id="u-Aj2_A5IeIaLN87Bf7G-42" value="Поменять имя" style="rounded=1;whiteSpace=wrap;html=1;shadow=0;comic=0;labelBackgroundColor=none;strokeWidth=1;fontFamily=Verdana;fontSize=12;align=center;arcSize=50;" vertex="1" parent="1">
          <mxGeometry x="-700" y="1180" width="180" height="70" as="geometry" />
        </mxCell>
        <mxCell id="u-Aj2_A5IeIaLN87Bf7G-43" value="Поменять почту" style="rounded=1;whiteSpace=wrap;html=1;shadow=0;comic=0;labelBackgroundColor=none;strokeWidth=1;fontFamily=Verdana;fontSize=12;align=center;arcSize=50;" vertex="1" parent="1">
          <mxGeometry x="-700" y="1299" width="180" height="70" as="geometry" />
        </mxCell>
        <mxCell id="u-Aj2_A5IeIaLN87Bf7G-44" value="Поменять пароль" style="rounded=1;whiteSpace=wrap;html=1;shadow=0;comic=0;labelBackgroundColor=none;strokeWidth=1;fontFamily=Verdana;fontSize=12;align=center;arcSize=50;" vertex="1" parent="1">
          <mxGeometry x="-690" y="1419" width="180" height="70" as="geometry" />
        </mxCell>
        <mxCell id="u-Aj2_A5IeIaLN87Bf7G-45" value="&amp;lt;&amp;lt;Extend&amp;gt;&amp;gt;" style="endArrow=open;endSize=12;dashed=1;html=1;rounded=0;exitX=0.944;exitY=0.143;exitDx=0;exitDy=0;entryX=0.5;entryY=1;entryDx=0;entryDy=0;exitPerimeter=0;" edge="1" parent="1" source="u-Aj2_A5IeIaLN87Bf7G-44" target="u-Aj2_A5IeIaLN87Bf7G-40">
          <mxGeometry width="160" relative="1" as="geometry">
            <mxPoint x="290" y="1475" as="sourcePoint" />
            <mxPoint x="190" y="1405" as="targetPoint" />
            <Array as="points" />
          </mxGeometry>
        </mxCell>
        <mxCell id="u-Aj2_A5IeIaLN87Bf7G-46" value="&amp;lt;&amp;lt;Extend&amp;gt;&amp;gt;" style="endArrow=open;endSize=12;dashed=1;html=1;rounded=0;exitX=1;exitY=0.5;exitDx=0;exitDy=0;entryX=0.25;entryY=1;entryDx=0;entryDy=0;" edge="1" parent="1" source="u-Aj2_A5IeIaLN87Bf7G-43" target="u-Aj2_A5IeIaLN87Bf7G-40">
          <mxGeometry width="160" relative="1" as="geometry">
            <mxPoint x="-500" y="1490" as="sourcePoint" />
            <mxPoint x="-360" y="1331" as="targetPoint" />
            <Array as="points" />
          </mxGeometry>
        </mxCell>
        <mxCell id="u-Aj2_A5IeIaLN87Bf7G-47" value="&amp;lt;&amp;lt;Extend&amp;gt;&amp;gt;" style="endArrow=open;endSize=12;dashed=1;html=1;rounded=0;exitX=1;exitY=0.5;exitDx=0;exitDy=0;entryX=0;entryY=0.5;entryDx=0;entryDy=0;" edge="1" parent="1" source="u-Aj2_A5IeIaLN87Bf7G-42" target="u-Aj2_A5IeIaLN87Bf7G-40">
          <mxGeometry width="160" relative="1" as="geometry">
            <mxPoint x="-510" y="1405" as="sourcePoint" />
            <mxPoint x="-405" y="1331" as="targetPoint" />
            <Array as="points" />
          </mxGeometry>
        </mxCell>
        <mxCell id="u-Aj2_A5IeIaLN87Bf7G-48" value="&lt;font style=&quot;vertical-align: inherit;&quot;&gt;&lt;font style=&quot;vertical-align: inherit;&quot;&gt;Пригласить пользователей&lt;/font&gt;&lt;/font&gt;" style="rounded=1;whiteSpace=wrap;html=1;shadow=0;comic=0;labelBackgroundColor=none;strokeWidth=1;fontFamily=Verdana;fontSize=12;align=center;arcSize=50;" vertex="1" parent="1">
          <mxGeometry x="-640" y="1515" width="120" height="70" as="geometry" />
        </mxCell>
        <mxCell id="u-Aj2_A5IeIaLN87Bf7G-49" value="&lt;font style=&quot;vertical-align: inherit;&quot;&gt;&lt;font style=&quot;vertical-align: inherit;&quot;&gt;Включить демонстрацию экрана&lt;/font&gt;&lt;/font&gt;" style="rounded=1;whiteSpace=wrap;html=1;shadow=0;comic=0;labelBackgroundColor=none;strokeWidth=1;fontFamily=Verdana;fontSize=12;align=center;arcSize=50;" vertex="1" parent="1">
          <mxGeometry x="-620" y="1619" width="130" height="70" as="geometry" />
        </mxCell>
        <mxCell id="u-Aj2_A5IeIaLN87Bf7G-50" value="&lt;font style=&quot;vertical-align: inherit;&quot;&gt;&lt;font style=&quot;vertical-align: inherit;&quot;&gt;Открыть чат&lt;/font&gt;&lt;/font&gt;" style="rounded=1;whiteSpace=wrap;html=1;shadow=0;comic=0;labelBackgroundColor=none;strokeWidth=1;fontFamily=Verdana;fontSize=12;align=center;arcSize=50;" vertex="1" parent="1">
          <mxGeometry x="-540" y="1705" width="100" height="60" as="geometry" />
        </mxCell>
        <mxCell id="u-Aj2_A5IeIaLN87Bf7G-51" value="&lt;font style=&quot;vertical-align: inherit;&quot;&gt;&lt;font style=&quot;vertical-align: inherit;&quot;&gt;Записать конференцию&lt;/font&gt;&lt;/font&gt;" style="rounded=1;whiteSpace=wrap;html=1;shadow=0;comic=0;labelBackgroundColor=none;strokeWidth=1;fontFamily=Verdana;fontSize=12;align=center;arcSize=50;" vertex="1" parent="1">
          <mxGeometry x="-430" y="1755" width="110" height="70" as="geometry" />
        </mxCell>
        <mxCell id="u-Aj2_A5IeIaLN87Bf7G-52" value="&lt;font style=&quot;vertical-align: inherit;&quot;&gt;&lt;font style=&quot;vertical-align: inherit;&quot;&gt;Завершить конференцию&lt;/font&gt;&lt;/font&gt;" style="rounded=1;whiteSpace=wrap;html=1;shadow=0;comic=0;labelBackgroundColor=none;strokeWidth=1;fontFamily=Verdana;fontSize=12;align=center;arcSize=50;" vertex="1" parent="1">
          <mxGeometry x="-310" y="1700" width="110" height="70" as="geometry" />
        </mxCell>
        <mxCell id="u-Aj2_A5IeIaLN87Bf7G-53" value="&amp;lt;&amp;lt;include&amp;gt;&amp;gt;" style="html=1;verticalAlign=bottom;labelBackgroundColor=none;endArrow=open;endFill=0;dashed=1;rounded=0;exitX=0;exitY=0.75;exitDx=0;exitDy=0;entryX=1;entryY=0.25;entryDx=0;entryDy=0;" edge="1" parent="1" source="u-Aj2_A5IeIaLN87Bf7G-18" target="u-Aj2_A5IeIaLN87Bf7G-48">
          <mxGeometry width="160" relative="1" as="geometry">
            <mxPoint x="-570" y="1560" as="sourcePoint" />
            <mxPoint x="-410" y="1560" as="targetPoint" />
          </mxGeometry>
        </mxCell>
        <mxCell id="u-Aj2_A5IeIaLN87Bf7G-54" value="&amp;lt;&amp;lt;include&amp;gt;&amp;gt;" style="html=1;verticalAlign=bottom;labelBackgroundColor=none;endArrow=open;endFill=0;dashed=1;rounded=0;exitX=1;exitY=0.75;exitDx=0;exitDy=0;entryX=0.5;entryY=0;entryDx=0;entryDy=0;" edge="1" parent="1" source="u-Aj2_A5IeIaLN87Bf7G-18" target="u-Aj2_A5IeIaLN87Bf7G-52">
          <mxGeometry width="160" relative="1" as="geometry">
            <mxPoint x="-570" y="1560" as="sourcePoint" />
            <mxPoint x="-410" y="1560" as="targetPoint" />
          </mxGeometry>
        </mxCell>
        <mxCell id="u-Aj2_A5IeIaLN87Bf7G-55" value="&amp;lt;&amp;lt;extend&amp;gt;&amp;gt;" style="html=1;verticalAlign=bottom;labelBackgroundColor=none;endArrow=open;endFill=0;dashed=1;rounded=0;exitX=0.75;exitY=0;exitDx=0;exitDy=0;entryX=0.25;entryY=1;entryDx=0;entryDy=0;" edge="1" parent="1" source="u-Aj2_A5IeIaLN87Bf7G-49" target="u-Aj2_A5IeIaLN87Bf7G-18">
          <mxGeometry width="160" relative="1" as="geometry">
            <mxPoint x="-570" y="1560" as="sourcePoint" />
            <mxPoint x="-410" y="1560" as="targetPoint" />
          </mxGeometry>
        </mxCell>
        <mxCell id="u-Aj2_A5IeIaLN87Bf7G-56" value="&amp;lt;&amp;lt;extend&amp;gt;&amp;gt;" style="html=1;verticalAlign=bottom;labelBackgroundColor=none;endArrow=open;endFill=0;dashed=1;rounded=0;exitX=0.75;exitY=0;exitDx=0;exitDy=0;entryX=0.5;entryY=1;entryDx=0;entryDy=0;" edge="1" parent="1" source="u-Aj2_A5IeIaLN87Bf7G-50" target="u-Aj2_A5IeIaLN87Bf7G-18">
          <mxGeometry width="160" relative="1" as="geometry">
            <mxPoint x="-570" y="1560" as="sourcePoint" />
            <mxPoint x="-410" y="1560" as="targetPoint" />
          </mxGeometry>
        </mxCell>
        <mxCell id="u-Aj2_A5IeIaLN87Bf7G-57" value="&amp;lt;&amp;lt;extend&amp;gt;&amp;gt;" style="html=1;verticalAlign=bottom;labelBackgroundColor=none;endArrow=open;endFill=0;dashed=1;rounded=0;exitX=0.5;exitY=0;exitDx=0;exitDy=0;entryX=0.75;entryY=1;entryDx=0;entryDy=0;" edge="1" parent="1" source="u-Aj2_A5IeIaLN87Bf7G-51" target="u-Aj2_A5IeIaLN87Bf7G-18">
          <mxGeometry width="160" relative="1" as="geometry">
            <mxPoint x="-570" y="1560" as="sourcePoint" />
            <mxPoint x="-410" y="1560" as="targetPoint" />
          </mxGeometry>
        </mxCell>
        <mxCell id="u-Aj2_A5IeIaLN87Bf7G-59" value="&lt;font style=&quot;vertical-align: inherit;&quot;&gt;&lt;font style=&quot;vertical-align: inherit;&quot;&gt;Включить/выключить звук&lt;/font&gt;&lt;/font&gt;" style="rounded=1;whiteSpace=wrap;html=1;shadow=0;comic=0;labelBackgroundColor=none;strokeWidth=1;fontFamily=Verdana;fontSize=12;align=center;arcSize=50;" vertex="1" parent="1">
          <mxGeometry x="314" y="1374" width="100" height="50" as="geometry" />
        </mxCell>
        <mxCell id="u-Aj2_A5IeIaLN87Bf7G-60" value="&lt;font style=&quot;vertical-align: inherit;&quot;&gt;&lt;font style=&quot;vertical-align: inherit;&quot;&gt;Включить/выключить видео&lt;/font&gt;&lt;/font&gt;" style="rounded=1;whiteSpace=wrap;html=1;shadow=0;comic=0;labelBackgroundColor=none;strokeWidth=1;fontFamily=Verdana;fontSize=12;align=center;arcSize=50;" vertex="1" parent="1">
          <mxGeometry x="159" y="1374" width="110" height="60" as="geometry" />
        </mxCell>
        <mxCell id="u-Aj2_A5IeIaLN87Bf7G-61" value="&amp;lt;&amp;lt;include&amp;gt;&amp;gt;" style="html=1;verticalAlign=bottom;labelBackgroundColor=none;endArrow=open;endFill=0;dashed=1;rounded=0;exitX=1;exitY=0.25;exitDx=0;exitDy=0;entryX=0;entryY=0.5;entryDx=0;entryDy=0;" edge="1" parent="1" source="u-Aj2_A5IeIaLN87Bf7G-5" target="u-Aj2_A5IeIaLN87Bf7G-6">
          <mxGeometry width="160" relative="1" as="geometry">
            <mxPoint x="-30" y="1560" as="sourcePoint" />
            <mxPoint x="130" y="1560" as="targetPoint" />
          </mxGeometry>
        </mxCell>
        <mxCell id="u-Aj2_A5IeIaLN87Bf7G-63" value="&amp;lt;&amp;lt;include&amp;gt;&amp;gt;" style="html=1;verticalAlign=bottom;labelBackgroundColor=none;endArrow=open;endFill=0;dashed=1;rounded=0;exitX=1;exitY=0.5;exitDx=0;exitDy=0;entryX=0;entryY=0.5;entryDx=0;entryDy=0;" edge="1" parent="1" source="u-Aj2_A5IeIaLN87Bf7G-5" target="u-Aj2_A5IeIaLN87Bf7G-59">
          <mxGeometry width="160" relative="1" as="geometry">
            <mxPoint x="-30" y="1560" as="sourcePoint" />
            <mxPoint x="130" y="1560" as="targetPoint" />
          </mxGeometry>
        </mxCell>
        <mxCell id="u-Aj2_A5IeIaLN87Bf7G-64" value="&amp;lt;&amp;lt;include&amp;gt;&amp;gt;" style="html=1;verticalAlign=bottom;labelBackgroundColor=none;endArrow=open;endFill=0;dashed=1;rounded=0;exitX=0.5;exitY=1;exitDx=0;exitDy=0;entryX=0;entryY=0.5;entryDx=0;entryDy=0;" edge="1" parent="1" source="u-Aj2_A5IeIaLN87Bf7G-5" target="u-Aj2_A5IeIaLN87Bf7G-60">
          <mxGeometry width="160" relative="1" as="geometry">
            <mxPoint x="-30" y="1560" as="sourcePoint" />
            <mxPoint x="130" y="1560" as="targetPoint" />
          </mxGeometry>
        </mxCell>
        <mxCell id="u-Aj2_A5IeIaLN87Bf7G-65" value="&lt;font style=&quot;vertical-align: inherit;&quot;&gt;&lt;font style=&quot;vertical-align: inherit;&quot;&gt;&lt;font style=&quot;vertical-align: inherit;&quot;&gt;&lt;font style=&quot;vertical-align: inherit;&quot;&gt;&lt;font style=&quot;vertical-align: inherit;&quot;&gt;&lt;font style=&quot;vertical-align: inherit;&quot;&gt;Ввести личные данные и придумать пароль&lt;/font&gt;&lt;/font&gt;&lt;/font&gt;&lt;/font&gt;&lt;/font&gt;&lt;/font&gt;" style="rounded=1;whiteSpace=wrap;html=1;shadow=0;comic=0;labelBackgroundColor=none;strokeWidth=1;fontFamily=Verdana;fontSize=12;align=center;arcSize=50;" vertex="1" parent="1">
          <mxGeometry x="-224.5" y="1560" width="129" height="80" as="geometry" />
        </mxCell>
        <mxCell id="u-Aj2_A5IeIaLN87Bf7G-67" value="&amp;lt;&amp;lt;include&amp;gt;&amp;gt;" style="html=1;verticalAlign=bottom;labelBackgroundColor=none;endArrow=open;endFill=0;dashed=1;rounded=0;entryX=0.5;entryY=0;entryDx=0;entryDy=0;exitX=0.5;exitY=1;exitDx=0;exitDy=0;" edge="1" parent="1" source="u-Aj2_A5IeIaLN87Bf7G-36" target="u-Aj2_A5IeIaLN87Bf7G-65">
          <mxGeometry width="160" relative="1" as="geometry">
            <mxPoint x="-270" y="1480" as="sourcePoint" />
            <mxPoint x="-110" y="1480" as="targetPoint" />
          </mxGeometry>
        </mxCell>
      </root>
    </mxGraphModel>
  </diagram>
</mxfile>
